<svg width="213" height="82" viewBox="0 0 213 82" fill="none" xmlns="http://www.w3.org/2000/svg">
<path d="M82.9545 62.3611C76.3607 47.6116 55.9624 19.0867 48.8156 22.9021C42.2121 26.4275 23.2969 49.4514 4.60327 59.2022C3.63131 59.7092 3.97832 61.3713 5.07448 61.385L82.9545 62.3611ZM82.9545 62.3611C86.2727 62.3611 101.353 62.3611 107.841 62.3611C102.63 70.4865 81.5507 84.1078 41.4773 78.8086M77.8497 58.0747C80.7212 49.331 91.8243 32.0026 113.265 32.6385M77.8497 58.0747C105.416 56.8029 112.946 40.5873 113.265 32.6385M77.8497 58.0747L113.265 32.6385" stroke="#CF9F94" stroke-width="4"/>
<path d="M18.5059 71.3897L54.2401 71.3897" stroke="#CF9F94" stroke-width="4"/>
<ellipse cx="92.5807" cy="13.248" rx="15.9528" ry="13.248" fill="#D1A297"/>
<path d="M141.465 74.96C141.118 75.0667 140.785 75.0533 140.465 74.92C140.171 74.7867 139.971 74.56 139.865 74.24C139.758 73.92 139.785 73.6133 139.945 73.32C140.105 73.0267 140.358 72.8267 140.705 72.72C142.278 72.2667 143.691 71.7333 144.945 71.12C146.225 70.5067 147.371 69.84 148.385 69.12C147.611 68.3733 146.878 67.5733 146.185 66.72C145.518 65.84 144.891 64.8933 144.305 63.88C143.238 66.0933 141.891 68.08 140.265 69.84C138.638 71.5733 136.731 73.1067 134.545 74.44C134.251 74.6267 133.931 74.6933 133.585 74.64C133.238 74.6133 132.958 74.4533 132.745 74.16C132.558 73.8667 132.505 73.56 132.585 73.24C132.665 72.92 132.878 72.6533 133.225 72.44C136.078 70.76 138.371 68.7067 140.105 66.28C141.838 63.8533 143.118 61.0267 143.945 57.8H138.265C137.945 57.8 137.678 57.6933 137.465 57.48C137.251 57.2667 137.145 57 137.145 56.68C137.145 56.3867 137.251 56.1333 137.465 55.92C137.678 55.68 137.945 55.56 138.265 55.56H144.425C144.611 54.52 144.771 53.3867 144.905 52.16H139.225C138.931 52.16 138.665 52.0533 138.425 51.84C138.211 51.6 138.105 51.3333 138.105 51.04C138.105 50.7467 138.211 50.4933 138.425 50.28C138.665 50.04 138.931 49.92 139.225 49.92H152.145C152.465 49.3333 152.851 48.6133 153.305 47.76C153.758 46.88 154.198 46 154.625 45.12C155.078 44.2133 155.425 43.4533 155.665 42.84C155.798 42.52 156.025 42.3067 156.345 42.2C156.665 42.0667 156.985 42.0667 157.305 42.2C157.598 42.3333 157.798 42.5467 157.905 42.84C158.038 43.1333 158.038 43.4267 157.905 43.72C157.531 44.6267 157.011 45.6667 156.345 46.84C155.705 47.9867 155.118 49.0133 154.585 49.92H158.865C159.185 49.92 159.451 50.04 159.665 50.28C159.878 50.4933 159.985 50.7467 159.985 51.04C159.985 51.3333 159.878 51.6 159.665 51.84C159.451 52.0533 159.185 52.16 158.865 52.16H147.345C147.291 52.7467 147.225 53.3333 147.145 53.92C147.091 54.48 147.011 55.0267 146.905 55.56H160.465C160.785 55.56 161.051 55.68 161.265 55.92C161.505 56.1333 161.625 56.3867 161.625 56.68C161.625 57 161.505 57.2667 161.265 57.48C161.051 57.6933 160.785 57.8 160.465 57.8H146.425C146.318 58.28 146.185 58.76 146.025 59.24C145.891 59.72 145.758 60.1867 145.625 60.64H152.065C153.958 60.64 155.145 61.1467 155.625 62.16C156.131 63.1733 155.918 64.3467 154.985 65.68C154.558 66.2667 154.105 66.8533 153.625 67.44C153.145 68 152.638 68.5467 152.105 69.08C153.171 69.7733 154.345 70.4 155.625 70.96C156.905 71.4933 158.318 71.9467 159.865 72.32C160.238 72.4267 160.518 72.6267 160.705 72.92C160.891 73.24 160.918 73.5733 160.785 73.92C160.678 74.2933 160.451 74.5467 160.105 74.68C159.785 74.84 159.425 74.8667 159.025 74.76C157.318 74.2533 155.731 73.6667 154.265 73C152.798 72.3333 151.465 71.56 150.265 70.68C149.091 71.5867 147.771 72.3867 146.305 73.08C144.865 73.8 143.251 74.4267 141.465 74.96ZM131.065 67.32C129.198 67.32 127.891 66.9867 127.145 66.32C126.425 65.6267 126.065 64.3067 126.065 62.36V46C126.065 44.0267 126.425 42.7067 127.145 42.04C127.891 41.3467 129.198 41 131.065 41C132.318 41 133.305 41.1467 134.025 41.44C134.771 41.7333 135.291 42.24 135.585 42.96C135.905 43.68 136.065 44.6933 136.065 46V62.36C136.065 64.3067 135.705 65.6267 134.985 66.32C134.265 66.9867 132.958 67.32 131.065 67.32ZM131.065 64.96C132.078 64.96 132.771 64.8 133.145 64.48C133.545 64.1333 133.745 63.4133 133.745 62.32V55.16H128.425V62.32C128.425 63.4133 128.611 64.1333 128.985 64.48C129.358 64.8 130.051 64.96 131.065 64.96ZM128.425 52.8H133.745V46.04C133.745 44.92 133.545 44.2 133.145 43.88C132.771 43.56 132.078 43.4 131.065 43.4C130.051 43.4 129.358 43.56 128.985 43.88C128.611 44.2 128.425 44.92 128.425 46.04V52.8ZM139.105 42.76C138.278 42.8133 137.825 42.44 137.745 41.64C137.718 41.32 137.811 41.0533 138.025 40.84C138.265 40.6 138.598 40.48 139.025 40.48C141.025 40.4533 143.131 40.36 145.345 40.2C147.585 40.0133 149.758 39.7867 151.865 39.52C153.998 39.2533 155.865 38.9733 157.465 38.68C158.398 38.52 158.931 38.7867 159.065 39.48C159.145 39.8267 159.105 40.1333 158.945 40.4C158.785 40.64 158.531 40.7867 158.185 40.84C156.318 41.16 154.291 41.4533 152.105 41.72C149.945 41.9867 147.745 42.2133 145.505 42.4C143.265 42.56 141.131 42.68 139.105 42.76ZM150.225 67.68C151.185 66.8 152.038 65.84 152.785 64.8C153.771 63.4133 153.385 62.72 151.625 62.72H146.065C146.625 63.6267 147.251 64.5067 147.945 65.36C148.638 66.1867 149.398 66.96 150.225 67.68ZM143.665 49.6C143.345 49.7333 143.051 49.7467 142.785 49.64C142.518 49.5333 142.318 49.3467 142.185 49.08C141.918 48.4933 141.571 47.7733 141.145 46.92C140.745 46.04 140.398 45.3467 140.105 44.84C139.945 44.5733 139.918 44.3067 140.025 44.04C140.131 43.7467 140.318 43.5333 140.585 43.4C140.878 43.2667 141.158 43.24 141.425 43.32C141.718 43.4 141.945 43.5867 142.105 43.88C142.425 44.44 142.798 45.1467 143.225 46C143.651 46.8533 143.985 47.5867 144.225 48.2C144.358 48.4667 144.371 48.7333 144.265 49C144.158 49.2667 143.958 49.4667 143.665 49.6ZM149.585 49.32C149.265 49.4267 148.971 49.4133 148.705 49.28C148.465 49.1467 148.291 48.9467 148.185 48.68C148.078 48.3333 147.918 47.8667 147.705 47.28C147.491 46.6933 147.278 46.1067 147.065 45.52C146.851 44.9067 146.678 44.44 146.545 44.12C146.438 43.8267 146.451 43.56 146.585 43.32C146.718 43.0533 146.918 42.8667 147.185 42.76C147.478 42.6533 147.758 42.6533 148.025 42.76C148.318 42.8667 148.518 43.08 148.625 43.4C148.785 43.7467 148.958 44.2133 149.145 44.8C149.358 45.3867 149.571 45.9733 149.785 46.56C149.998 47.12 150.158 47.6 150.265 48C150.451 48.6667 150.225 49.1067 149.585 49.32ZM171.945 67.16C170.318 67.16 169.185 66.8533 168.545 66.24C167.905 65.6267 167.585 64.6133 167.585 63.2V46.6C167.585 46.3067 167.678 46.0667 167.865 45.88C168.078 45.6933 168.318 45.6 168.585 45.6C168.878 45.6 169.131 45.6933 169.345 45.88C169.558 46.0667 169.665 46.3067 169.665 46.6V62.84C169.665 63.6667 169.825 64.24 170.145 64.56C170.465 64.8533 171.118 65 172.105 65H172.305V40.6C172.305 40.3067 172.411 40.08 172.625 39.92C172.838 39.7333 173.078 39.64 173.345 39.64C173.611 39.64 173.838 39.7333 174.025 39.92C174.238 40.08 174.345 40.3067 174.345 40.6V65H174.545C175.558 65 176.211 64.8533 176.505 64.56C176.825 64.24 176.985 63.6667 176.985 62.84V46.6C176.985 46.3067 177.091 46.0667 177.305 45.88C177.545 45.6933 177.798 45.6 178.065 45.6C178.331 45.6 178.571 45.6933 178.785 45.88C178.998 46.0667 179.105 46.3067 179.105 46.6V63.2C179.105 63.3067 179.091 63.4133 179.065 63.52C179.065 63.6 179.065 63.68 179.065 63.76H181.385V45.8C181.385 44.52 181.585 43.6 181.985 43.04C182.385 42.4533 183.131 41.9867 184.225 41.64C184.411 41.5867 184.705 41.4933 185.105 41.36C185.531 41.2 185.838 41.08 186.025 41C186.318 40.8933 186.611 40.8933 186.905 41C187.198 41.1067 187.398 41.3067 187.505 41.6C187.611 41.8667 187.611 42.1467 187.505 42.44C187.398 42.7067 187.198 42.8933 186.905 43C186.638 43.08 186.331 43.1867 185.985 43.32C185.638 43.4267 185.318 43.52 185.025 43.6C184.385 43.7867 183.958 44.04 183.745 44.36C183.558 44.6533 183.465 45.1467 183.465 45.84V49H186.305C186.598 49 186.851 49.1067 187.065 49.32C187.278 49.5333 187.385 49.7867 187.385 50.08C187.385 50.3733 187.278 50.6267 187.065 50.84C186.851 51.0533 186.598 51.16 186.305 51.16H183.465V56.28H186.305C186.598 56.28 186.851 56.3867 187.065 56.6C187.278 56.8133 187.385 57.0667 187.385 57.36C187.385 57.6533 187.278 57.9067 187.065 58.12C186.851 58.3333 186.598 58.44 186.305 58.44H183.465V63.76H188.385V54.12C188.385 53.8267 188.478 53.6 188.665 53.44C188.878 53.2533 189.118 53.16 189.385 53.16C189.651 53.16 189.878 53.2533 190.065 53.44C190.278 53.6 190.385 53.8267 190.385 54.12V63.76H192.385V53C192.385 52.3867 192.305 51.9733 192.145 51.76C191.985 51.5467 191.625 51.4133 191.065 51.36C190.105 51.28 189.425 51.0267 189.025 50.6C188.625 50.1467 188.425 49.3333 188.425 48.16V40.12C188.425 39.8267 188.531 39.5867 188.745 39.4C188.958 39.2133 189.198 39.12 189.465 39.12C189.731 39.12 189.971 39.2133 190.185 39.4C190.398 39.5867 190.505 39.8267 190.505 40.12V42.92H193.785C194.105 42.92 194.358 43.0267 194.545 43.24C194.758 43.4533 194.865 43.7067 194.865 44C194.865 44.2667 194.758 44.5067 194.545 44.72C194.358 44.9333 194.105 45.04 193.785 45.04H190.505V47.84C190.505 48.4533 190.598 48.8667 190.785 49.08C190.971 49.2667 191.358 49.3867 191.945 49.44C192.905 49.52 193.558 49.8 193.905 50.28C194.278 50.7333 194.465 51.52 194.465 52.64V63.76H199.425V58.4H196.505C196.211 58.4 195.958 58.2933 195.745 58.08C195.558 57.8667 195.465 57.6133 195.465 57.32C195.465 57.0267 195.558 56.7867 195.745 56.6C195.958 56.3867 196.211 56.28 196.505 56.28H199.425V51.16H196.505C196.211 51.16 195.958 51.0533 195.745 50.84C195.558 50.6267 195.465 50.3733 195.465 50.08C195.465 49.7867 195.558 49.5333 195.745 49.32C195.958 49.1067 196.211 49 196.505 49H199.425V45.68C199.425 44.7733 199.291 44.1867 199.025 43.92C198.785 43.6533 198.211 43.52 197.305 43.52H196.225C195.905 43.52 195.625 43.4267 195.385 43.24C195.171 43.0533 195.065 42.7867 195.065 42.44C195.065 42.0933 195.171 41.8267 195.385 41.64C195.625 41.4267 195.905 41.32 196.225 41.32H197.305C198.931 41.32 200.038 41.6133 200.625 42.2C201.238 42.7867 201.545 43.9067 201.545 45.56V63.76H203.265C203.558 63.76 203.811 63.8667 204.025 64.08C204.238 64.2933 204.345 64.5467 204.345 64.84C204.345 65.1333 204.238 65.3867 204.025 65.6C203.811 65.8133 203.558 65.92 203.265 65.92H178.425C177.785 66.7467 176.545 67.16 174.705 67.16H171.945ZM180.345 74.92C180.051 75.08 179.745 75.12 179.425 75.04C179.105 74.96 178.851 74.7867 178.665 74.52C178.531 74.2267 178.505 73.92 178.585 73.6C178.691 73.3067 178.891 73.0933 179.185 72.96C180.518 72.2667 181.851 71.4267 183.185 70.44C184.518 69.4533 185.678 68.4667 186.665 67.48C186.878 67.2667 187.145 67.1733 187.465 67.2C187.785 67.2267 188.038 67.3467 188.225 67.56C188.438 67.7733 188.531 68.0267 188.505 68.32C188.505 68.5867 188.398 68.8267 188.185 69.04C187.065 70.1333 185.798 71.2 184.385 72.24C182.998 73.3067 181.651 74.2 180.345 74.92ZM202.025 74.88C201.198 74.4267 200.318 73.88 199.385 73.24C198.451 72.6 197.545 71.92 196.665 71.2C195.785 70.4533 194.985 69.7333 194.265 69.04C194.078 68.8267 193.971 68.5867 193.945 68.32C193.945 68.0267 194.051 67.7733 194.265 67.56C194.478 67.3467 194.731 67.24 195.025 67.24C195.318 67.2133 195.571 67.3067 195.785 67.52C196.398 68.1067 197.118 68.7467 197.945 69.44C198.771 70.1067 199.638 70.7467 200.545 71.36C201.451 71.9733 202.318 72.4933 203.145 72.92C203.438 73.0533 203.625 73.2667 203.705 73.56C203.811 73.8533 203.798 74.1467 203.665 74.44C203.505 74.7333 203.265 74.92 202.945 75C202.625 75.08 202.318 75.04 202.025 74.88Z" fill="#8F9FAD"/>
</svg>
